<?xml version="1.0" encoding="utf-8"?>
<svg viewBox="0 0 1020.335 230.413" xmlns="http://www.w3.org/2000/svg" xmlns:bx="https://boxy-svg.com">
  <path d="M 50.351 29.021 L 248.703 29.021 L 247.163 32.332 L 207.354 102.094 C 204.043 107.792 200.732 107.869 197.344 102.094 C 190.491 90.236 183.484 78.455 176.939 66.443 C 175.091 63.132 173.089 61.9 169.393 62.208 C 165.312 62.516 161.231 62.208 156.303 62.208 L 158.382 66.212 C 169.008 84.615 179.634 103.095 190.414 121.421 C 192.416 124.809 192.416 127.581 190.414 130.969 C 177.478 152.991 164.773 175.09 152.068 197.189 C 151.375 198.267 150.99 199.73 149.989 200.346 C 148.757 201.193 146.909 202.04 145.6 201.732 C 144.291 201.347 143.136 199.73 142.52 198.344 C 141.981 197.266 142.289 195.803 142.289 194.494 L 142.289 85.924 C 142.289 78.763 143.059 77.993 150.143 77.993 L 155.071 77.993 C 151.991 72.603 149.296 67.829 146.447 63.209 C 146.062 62.593 144.676 62.285 143.752 62.285 L 124.887 62.285 C 123.886 62.362 122.423 63.055 121.807 63.979 C 119.112 68.291 116.648 72.757 113.645 77.993 L 120.113 77.993 C 125.195 77.993 126.504 79.379 126.504 84.461 L 126.504 191.491 C 126.504 193.108 126.427 194.802 126.504 196.419 C 126.504 198.96 125.965 201.116 123.27 201.809 C 120.575 202.579 118.958 201.039 117.649 198.883 L 95.935 161.23 C 89.929 150.758 84 140.286 77.84 129.968 C 76.3 127.273 76.3 125.117 77.84 122.499 C 88.62 104.019 99.246 85.385 109.949 66.828 L 112.49 62.285 C 106.407 62.285 101.094 62.131 95.781 62.439 C 94.78 62.439 93.471 63.902 92.855 64.98 L 71.449 101.94 C 68.215 107.484 64.981 107.484 61.67 101.863 L 21.707 32.563 L 19.936 29.021 L 50.351 29.021 M 200.655 63.825 C 198.499 67.521 196.343 71.14 194.341 74.836 C 193.879 75.76 193.34 77.223 193.725 77.993 C 196.343 82.998 199.269 87.849 202.349 93.162 C 213.129 74.451 223.37 56.356 233.919 37.876 L 142.135 37.876 C 144.753 42.496 147.217 46.346 149.373 50.581 C 150.528 52.891 151.991 53.507 154.455 53.507 L 206.661 53.507 L 200.732 63.825 M 111.566 53.43 C 113.876 53.122 117.264 53.507 118.265 52.198 C 121.499 47.886 123.886 42.958 126.735 37.953 L 34.797 37.953 L 66.521 92.854 C 69.37 87.926 71.68 83.614 74.221 79.533 C 75.53 77.608 75.222 76.145 74.144 74.374 C 70.679 68.676 67.445 62.824 64.134 57.049 C 63.518 56.048 63.056 54.97 62.286 53.43 L 111.412 53.43 M 167.622 120.959 L 152.607 146.908 C 152.068 147.909 151.144 148.987 151.144 149.988 L 151.144 180.018 L 152.068 179.479 L 181.867 127.889 C 182.329 127.119 182.406 125.579 181.944 124.809 C 179.403 120.112 176.708 115.569 173.705 110.41 C 171.626 114.106 169.778 117.34 167.545 120.959 M 107.639 164.079 L 116.725 179.71 C 117.572 169.854 117.649 160.383 117.495 150.912 C 117.495 149.603 116.725 148.217 115.955 147.062 C 110.411 137.206 104.79 127.504 99.169 117.725 L 94.857 110.41 C 92.316 114.876 90.237 118.803 87.773 122.499 C 86.156 125.04 86.079 127.042 87.696 129.737 C 94.395 140.902 100.786 152.298 107.639 164.156 M 155.841 123.808 L 161.847 113.567 C 164.08 109.563 168.007 105.482 168.007 101.478 C 167.93 97.474 163.926 93.47 161.693 89.466 C 161.385 89.004 161.231 88.465 160.923 88.157 C 160.153 87.618 159.383 87.002 158.613 87.002 C 156.303 86.848 153.916 86.925 151.298 86.925 L 151.298 131.585 L 155.918 123.885 M 117.572 106.791 L 117.572 87.387 C 108.948 86.001 108.948 86.001 105.021 92.777 C 103.789 94.933 102.249 96.935 101.402 99.168 C 100.863 100.631 100.709 102.71 101.402 103.942 C 104.482 109.871 107.947 115.569 111.258 121.344 L 116.802 130.738 L 117.572 130.507 L 117.572 106.791 M 136.822 46.423 L 134.281 42.111 L 127.813 53.276 L 140.749 53.276 L 136.899 46.423 M 78.841 65.211 L 80.92 68.291 L 84.077 62.362 L 77.455 62.362 L 78.841 65.211 M 189.952 62.285 L 184.562 62.285 L 188.181 68.676 C 189.182 66.135 189.875 64.364 189.952 62.285 Z" style="stroke: none; stroke-dasharray: none; stroke-linecap: butt; stroke-dashoffset: 0; stroke-linejoin: miter; stroke-miterlimit: 4; fill: rgb(247, 204, 48); fill-rule: nonzero; opacity: 1; paint-order: fill;" vector-effect="non-scaling-stroke" bx:origin="0.416 0.512"/>
  <g transform="matrix(1, 0, 0, 1, -2.010057, 4.020114)">
    <path d="M 884.016 105.898 L 899.727 105.898 C 901.776 105.898 903.962 105.898 905.738 106.793 C 916.12 112.16 911.749 124.325 912.295 133.986 C 912.705 141.5 909.426 146.688 903.415 146.867 C 891.12 147.225 878.825 147.404 866.53 146.867 C 859.289 146.509 857.24 141.5 858.06 127.903 L 868.715 125.399 L 869.672 133.986 L 900.137 133.986 L 900.137 116.99 L 873.224 116.99 C 859.153 116.99 851.912 101.426 858.879 85.146 C 860.109 82.105 863.797 79.421 866.53 79.242 C 878.825 78.705 891.12 78.705 903.415 79.242 C 910.246 79.242 912.568 85.504 912.432 94.807 L 901.503 97.669 L 899.727 90.871 L 869.672 90.871 L 869.672 105.72 L 884.016 105.72 L 884.016 105.898 Z" style="stroke: none; stroke-width: 1; stroke-dasharray: none; stroke-linecap: butt; stroke-dashoffset: 0; stroke-linejoin: miter; stroke-miterlimit: 4; fill-rule: nonzero; opacity: 1; fill: rgb(238, 238, 238);" vector-effect="non-scaling-stroke"/>
    <path d="M 831.995 116.99 C 827.487 118.779 823.389 120.032 819.29 121.284 L 838.143 144.183 C 829.4 147.761 822.159 149.55 816.695 139.174 C 814.372 134.881 810.82 131.839 808.361 127.546 C 804.263 120.389 799.208 118.779 792.378 120.926 L 792.378 147.046 L 780.765 147.046 L 780.765 79.063 C 796.613 79.063 812.46 79.063 828.17 79.421 C 830.219 79.421 833.635 82.283 833.908 84.788 C 835.821 95.164 837.597 106.256 832.132 116.811 M 798.798 90.334 L 792.651 90.692 L 792.651 108.582 L 817.241 108.582 C 821.749 108.582 823.799 106.077 823.799 99.995 C 823.799 93.733 822.296 90.334 817.241 90.334 L 798.798 90.334 Z" style="stroke: none; stroke-width: 1; stroke-dasharray: none; stroke-linecap: butt; stroke-dashoffset: 0; stroke-linejoin: miter; stroke-miterlimit: 4; fill-rule: nonzero; opacity: 1; fill: rgb(238, 238, 238);" vector-effect="non-scaling-stroke"/>
    <path d="M 416.563 144.72 C 416.016 145.972 415.606 147.046 415.06 147.046 L 364.923 147.046 L 364.923 79.242 L 415.47 79.242 L 415.47 90.155 L 377.081 90.155 L 377.081 105.541 L 402.491 105.541 L 402.491 116.99 L 376.535 116.99 L 376.535 134.344 L 416.563 134.344 L 416.563 144.72 Z" style="stroke: none; stroke-width: 1; stroke-dasharray: none; stroke-linecap: butt; stroke-dashoffset: 0; stroke-linejoin: miter; stroke-miterlimit: 4; fill-rule: nonzero; opacity: 1; fill: rgb(238, 238, 238);" vector-effect="non-scaling-stroke"/>
    <path d="M 975.655 90.692 L 950.108 90.692 L 950.108 105.541 L 975.655 105.541 L 975.655 116.99 L 949.698 116.99 L 949.698 134.344 L 989.316 134.344 L 989.316 146.867 L 937.949 146.867 L 937.949 79.063 L 988.633 79.063 L 988.633 90.513 L 975.655 90.513 L 975.655 90.692 Z" style="stroke: none; stroke-width: 1; stroke-dasharray: none; stroke-linecap: butt; stroke-dashoffset: 0; stroke-linejoin: miter; stroke-miterlimit: 4; fill-rule: nonzero; opacity: 1; fill: rgb(238, 238, 238);" vector-effect="non-scaling-stroke"/>
    <path d="M 468.173 147.046 C 461.07 147.046 454.785 147.404 448.365 147.046 C 441.397 146.688 438.392 142.752 438.255 133.628 L 438.255 91.586 C 438.255 83.894 441.534 79.063 447.545 79.063 C 459.567 78.705 471.589 78.526 483.611 79.063 C 491.808 79.421 493.584 84.43 492.627 100.174 L 481.698 102.678 C 481.562 98.742 481.288 95.343 480.879 91.229 L 450.687 91.229 L 450.687 134.165 L 481.152 134.165 L 481.562 120.747 L 492.9 122.715 L 492.9 134.344 C 492.9 142.752 489.349 146.867 483.201 147.046 C 478.419 147.404 473.638 147.046 468.173 147.046 Z" style="stroke: none; stroke-width: 1; stroke-dasharray: none; stroke-linecap: butt; stroke-dashoffset: 0; stroke-linejoin: miter; stroke-miterlimit: 4; fill-rule: nonzero; opacity: 1; fill: rgb(238, 238, 238);" vector-effect="non-scaling-stroke"/>
    <path d="M 517.462 95.164 L 517.462 79.063 L 529.484 79.063 L 529.484 105.183 L 565.14 105.183 L 565.14 79.242 L 577.299 79.242 L 577.299 146.688 L 565.686 146.688 L 565.686 117.348 L 529.62 117.348 L 529.62 146.688 L 517.598 146.688 L 517.598 95.343 L 517.462 95.164 Z" style="stroke: none; stroke-width: 1; stroke-dasharray: none; stroke-linecap: butt; stroke-dashoffset: 0; stroke-linejoin: miter; stroke-miterlimit: 4; fill-rule: nonzero; opacity: 1; fill: rgb(238, 238, 238);" vector-effect="non-scaling-stroke"/>
    <path d="M 726.969 105.898 L 745.275 105.898 L 745.685 116.633 L 719.318 116.633 L 719.318 134.523 L 758.8 134.523 L 758.8 146.509 L 707.57 146.509 L 707.57 79.063 L 757.707 79.063 L 757.707 90.334 L 719.182 90.334 L 719.182 105.72 L 726.969 105.72 L 726.969 105.898 Z" style="stroke: none; stroke-width: 1; stroke-dasharray: none; stroke-linecap: butt; stroke-dashoffset: 0; stroke-linejoin: miter; stroke-miterlimit: 4; fill-rule: nonzero; opacity: 1; fill: rgb(238, 238, 238);" vector-effect="non-scaling-stroke"/>
    <path d="M 677.407 116.99 C 673.992 125.935 670.85 134.523 667.434 142.931 C 664.975 149.193 658.964 149.193 656.505 142.931 C 647.625 122.178 639.155 101.247 630.549 80.316 C 639.702 76.38 641.888 77.274 646.123 87.472 L 662.243 126.472 L 676.861 88.366 C 680.959 77.632 680.959 77.632 691.478 79.779 L 677.407 116.99 Z" style="stroke: none; stroke-width: 1; stroke-dasharray: none; stroke-linecap: butt; stroke-dashoffset: 0; stroke-linejoin: miter; stroke-miterlimit: 4; fill-rule: nonzero; opacity: 1; fill: rgb(238, 238, 238);" vector-effect="non-scaling-stroke"/>
    <path d="M 327.354 120.211 L 327.354 146.509 L 315.332 146.509 L 315.332 90.692 L 292.381 90.692 L 292.381 79.063 L 350.168 79.063 L 350.168 90.155 L 327.354 90.155 L 327.354 120.211 Z" style="stroke: none; stroke-width: 1; stroke-dasharray: none; stroke-linecap: butt; stroke-dashoffset: 0; stroke-linejoin: miter; stroke-miterlimit: 4; fill-rule: nonzero; opacity: 1; fill: rgb(238, 238, 238);" vector-effect="non-scaling-stroke"/>
  </g>
</svg>