<?xml version="1.0" standalone="no"?>
<!DOCTYPE svg PUBLIC "-//W3C//DTD SVG 20010904//EN"
 "http://www.w3.org/TR/2001/REC-SVG-20010904/DTD/svg10.dtd">
<svg version="1.0" xmlns="http://www.w3.org/2000/svg"
 width="1000.000000pt" height="390.000000pt" viewBox="0 0 1000.000000 390.000000"
 preserveAspectRatio="xMidYMid meet">

<g transform="translate(0.000000,390.000000) scale(0.100000,-0.100000)"
fill="#000000" stroke="none">
<path d="M2655 3784 c-124 -19 -325 -70 -412 -105 -599 -238 -1026 -757 -1159
-1409 -21 -100 -29 -398 -15 -532 20 -202 88 -424 192 -628 191 -376 482 -659
867 -842 153 -73 259 -109 427 -145 121 -26 146 -27 365 -27 218 0 244 2 365
27 159 34 227 55 375 119 210 91 366 196 536 360 72 70 108 98 126 98 14 0 56
-24 104 -60 81 -61 123 -77 171 -65 33 8 72 41 84 72 12 31 98 646 106 753 6
96 -6 136 -53 167 -48 31 -97 21 -314 -67 -113 -45 -278 -112 -367 -147 -196
-78 -223 -101 -223 -188 0 -52 3 -58 43 -96 23 -23 61 -57 85 -77 23 -19 42
-40 42 -47 0 -17 -166 -160 -253 -218 -159 -106 -412 -210 -574 -238 -38 -7
-160 -12 -273 -12 -233 0 -287 9 -491 87 -235 89 -345 160 -525 340 -188 189
-274 322 -364 566 -57 154 -65 214 -65 475 0 253 5 294 52 440 172 537 654
947 1196 1015 118 15 356 12 472 -5 339 -51 678 -250 899 -529 79 -99 95 -123
240 -361 54 -88 122 -198 151 -245 29 -47 182 -296 340 -555 158 -259 335
-548 394 -643 194 -316 375 -510 632 -677 88 -57 309 -166 396 -194 236 -78
418 -105 663 -98 234 7 416 43 610 119 412 162 749 458 965 846 97 175 175
399 209 605 20 115 23 413 6 538 -44 317 -197 664 -410 924 -483 589 -1305
821 -2040 576 -375 -126 -715 -390 -947 -736 -102 -153 -194 -308 -189 -320 9
-24 169 -278 191 -303 29 -33 5 -62 210 256 158 244 255 368 356 453 207 177
459 299 711 345 126 23 427 24 554 1 228 -41 485 -166 687 -335 236 -196 414
-495 483 -812 26 -118 26 -473 1 -603 -32 -159 -115 -360 -211 -505 -57 -89
-93 -132 -179 -221 -201 -206 -428 -334 -740 -418 -97 -27 -113 -28 -327 -28
-204 0 -233 2 -315 24 -309 81 -532 207 -741 418 -79 80 -153 188 -356 518
-75 121 -225 364 -333 540 -109 176 -277 448 -373 605 -302 492 -378 594 -562
757 -286 254 -657 415 -1044 452 -146 15 -340 12 -451 -5z"/>
<path d="M2845 2898 c-2 -7 -9 -32 -15 -55 -10 -38 -15 -43 -64 -62 -94 -35
-118 -36 -146 -6 -14 15 -38 33 -53 41 -26 14 -32 13 -87 -17 -89 -47 -96 -58
-82 -126 14 -68 10 -78 -65 -138 -50 -41 -61 -46 -87 -39 -78 18 -86 14 -132
-61 -24 -38 -44 -76 -44 -83 0 -8 16 -32 35 -55 40 -47 44 -82 16 -162 -16
-46 -21 -51 -67 -65 -75 -23 -74 -21 -74 -119 0 -100 4 -107 79 -131 40 -13
48 -20 63 -60 28 -75 24 -121 -17 -170 -19 -23 -35 -44 -35 -46 0 -13 53 -106
75 -133 27 -31 28 -31 92 -25 l64 7 45 -44 c64 -62 68 -72 53 -129 -11 -44
-11 -52 5 -69 22 -24 132 -91 150 -91 7 0 28 16 47 36 33 35 36 36 91 31 86
-8 129 -33 144 -85 19 -68 26 -72 120 -72 92 0 104 8 120 75 10 44 20 52 79
70 79 22 117 20 146 -11 42 -45 54 -47 107 -20 27 14 63 37 81 51 31 27 31 28
25 91 l-7 63 56 58 55 58 46 -13 c77 -20 80 -19 130 66 25 43 46 84 46 91 0 7
-16 27 -35 45 -41 39 -45 79 -17 161 16 48 19 51 77 70 l60 21 0 99 0 100 -45
13 c-71 21 -74 24 -98 111 l-24 82 41 44 c23 25 41 50 41 58 0 7 -19 44 -43
82 -40 65 -45 70 -77 70 -19 0 -50 -4 -69 -8 -31 -6 -37 -3 -94 52 l-60 58 13
61 c7 33 9 65 6 71 -9 14 -147 91 -164 91 -7 0 -26 -16 -43 -35 -40 -45 -57
-49 -131 -29 -78 21 -85 27 -100 78 -18 65 -20 66 -130 66 -70 0 -100 -4 -103
-12z m240 -383 c226 -43 418 -235 455 -456 53 -311 -133 -589 -446 -669 -202
-52 -375 0 -534 160 -127 127 -170 228 -170 403 0 284 180 497 475 562 80 18
128 18 220 0z"/>
<path d="M5442 2168 c-9 -9 -12 -72 -12 -223 0 -151 3 -214 12 -223 18 -18
105 -15 112 4 3 9 6 51 6 95 l0 79 44 0 c54 0 91 -28 132 -98 47 -83 60 -92
126 -92 32 0 58 4 58 9 0 18 -96 166 -127 196 l-33 32 29 21 c31 23 125 187
116 202 -7 11 -84 13 -109 4 -9 -3 -34 -39 -57 -80 -45 -82 -74 -104 -139
-104 l-40 0 0 83 c0 51 -5 88 -12 95 -7 7 -30 12 -53 12 -23 0 -46 -5 -53 -12z"/>
<path d="M6145 2171 c-47 -12 -93 -39 -110 -65 -18 -27 -105 -337 -105 -373 0
-21 5 -23 44 -23 64 0 73 6 87 61 l13 50 115 -3 116 -3 5 -50 5 -50 55 0 55 0
3 224 c2 173 -1 226 -10 233 -16 10 -232 9 -273 -1z m165 -171 l0 -80 -104 0
-104 0 15 58 c22 86 42 102 125 102 l68 0 0 -80z"/>
<path d="M6530 2161 c-6 -12 -10 -100 -10 -216 0 -116 4 -204 10 -216 14 -25
104 -28 114 -3 12 31 7 429 -6 442 -7 7 -31 12 -55 12 -32 0 -45 -5 -53 -19z"/>
<path d="M6723 2173 c-16 -6 -17 -65 -1 -81 8 -8 53 -12 137 -12 l126 0 -133
-133 c-110 -111 -134 -139 -139 -170 -10 -66 -6 -67 223 -67 l204 0 11 24 c8
17 8 29 0 45 -11 20 -19 21 -149 21 l-137 0 143 141 c139 137 142 141 142 183
0 31 -5 46 -16 50 -19 7 -393 7 -411 -1z"/>
<path d="M7232 2172 c-9 -7 -12 -60 -10 -233 l3 -224 204 -3 c215 -3 231 0
231 43 0 39 -20 44 -171 47 l-144 3 0 45 0 45 132 3 133 3 6 26 c13 52 -1 58
-145 61 l-131 3 0 44 0 45 141 0 c77 0 149 5 160 10 22 12 26 59 7 78 -14 14
-394 17 -416 4z"/>
<path d="M7721 2161 c-14 -26 -15 -406 -1 -432 8 -14 21 -19 55 -19 34 0 47 5
55 19 5 11 10 77 11 148 0 103 3 124 12 110 7 -10 45 -68 85 -130 103 -157 92
-148 181 -145 l76 3 3 224 c2 173 -1 226 -10 233 -21 12 -85 9 -96 -5 -7 -8
-13 -73 -14 -161 l-3 -148 -105 159 -105 158 -67 3 c-58 3 -68 0 -77 -17z"/>
</g>
</svg>
