<?xml version="1.0" encoding="utf-8"?>
<svg viewBox="100 152.454 228.767 172.989" xmlns="http://www.w3.org/2000/svg" xmlns:bx="https://boxy-svg.com">
  <path d="M 130.415 152.454 L 328.767 152.454 L 327.227 155.765 L 287.418 225.527 C 284.107 231.225 280.796 231.302 277.408 225.527 C 270.555 213.669 263.548 201.888 257.003 189.876 C 255.155 186.565 253.153 185.333 249.457 185.641 C 245.376 185.949 241.295 185.641 236.367 185.641 L 238.446 189.645 C 249.072 208.048 259.698 226.528 270.478 244.854 C 272.48 248.242 272.48 251.014 270.478 254.402 C 257.542 276.424 244.837 298.523 232.132 320.622 C 231.439 321.7 231.054 323.163 230.053 323.779 C 228.821 324.626 226.973 325.473 225.664 325.165 C 224.355 324.78 223.2 323.163 222.584 321.777 C 222.045 320.699 222.353 319.236 222.353 317.927 L 222.353 209.357 C 222.353 202.196 223.123 201.426 230.207 201.426 L 235.135 201.426 C 232.055 196.036 229.36 191.262 226.511 186.642 C 226.126 186.026 224.74 185.718 223.816 185.718 L 204.951 185.718 C 203.95 185.795 202.487 186.488 201.871 187.412 C 199.176 191.724 196.712 196.19 193.709 201.426 L 200.177 201.426 C 205.259 201.426 206.568 202.812 206.568 207.894 L 206.568 314.924 C 206.568 316.541 206.491 318.235 206.568 319.852 C 206.568 322.393 206.029 324.549 203.334 325.242 C 200.639 326.012 199.022 324.472 197.713 322.316 L 175.999 284.663 C 169.993 274.191 164.064 263.719 157.904 253.401 C 156.364 250.706 156.364 248.55 157.904 245.932 C 168.684 227.452 179.31 208.818 190.013 190.261 L 192.554 185.718 C 186.471 185.718 181.158 185.564 175.845 185.872 C 174.844 185.872 173.535 187.335 172.919 188.413 L 151.513 225.373 C 148.279 230.917 145.045 230.917 141.734 225.296 L 101.771 155.996 L 100 152.454 L 130.415 152.454 M 280.719 187.258 C 278.563 190.954 276.407 194.573 274.405 198.269 C 273.943 199.193 273.404 200.656 273.789 201.426 C 276.407 206.431 279.333 211.282 282.413 216.595 C 293.193 197.884 303.434 179.789 313.983 161.309 L 222.199 161.309 C 224.817 165.929 227.281 169.779 229.437 174.014 C 230.592 176.324 232.055 176.94 234.519 176.94 L 286.725 176.94 L 280.796 187.258 M 191.63 176.863 C 193.94 176.555 197.328 176.94 198.329 175.631 C 201.563 171.319 203.95 166.391 206.799 161.386 L 114.861 161.386 L 146.585 216.287 C 149.434 211.359 151.744 207.047 154.285 202.966 C 155.594 201.041 155.286 199.578 154.208 197.807 C 150.743 192.109 147.509 186.257 144.198 180.482 C 143.582 179.481 143.12 178.403 142.35 176.863 L 191.476 176.863 M 247.686 244.392 L 232.671 270.341 C 232.132 271.342 231.208 272.42 231.208 273.421 L 231.208 303.451 L 232.132 302.912 L 261.931 251.322 C 262.393 250.552 262.47 249.012 262.008 248.242 C 259.467 243.545 256.772 239.002 253.769 233.843 C 251.69 237.539 249.842 240.773 247.609 244.392 M 187.703 287.512 L 196.789 303.143 C 197.636 293.287 197.713 283.816 197.559 274.345 C 197.559 273.036 196.789 271.65 196.019 270.495 C 190.475 260.639 184.854 250.937 179.233 241.158 L 174.921 233.843 C 172.38 238.309 170.301 242.236 167.837 245.932 C 166.22 248.473 166.143 250.475 167.76 253.17 C 174.459 264.335 180.85 275.731 187.703 287.589 M 235.905 247.241 L 241.911 237 C 244.144 232.996 248.071 228.915 248.071 224.911 C 247.994 220.907 243.99 216.903 241.757 212.899 C 241.449 212.437 241.295 211.898 240.987 211.59 C 240.217 211.051 239.447 210.435 238.677 210.435 C 236.367 210.281 233.98 210.358 231.362 210.358 L 231.362 255.018 L 235.982 247.318 M 197.636 230.224 L 197.636 210.82 C 189.012 209.434 189.012 209.434 185.085 216.21 C 183.853 218.366 182.313 220.368 181.466 222.601 C 180.927 224.064 180.773 226.143 181.466 227.375 C 184.546 233.304 188.011 239.002 191.322 244.777 L 196.866 254.171 L 197.636 253.94 L 197.636 230.224 M 216.886 169.856 L 214.345 165.544 L 207.877 176.709 L 220.813 176.709 L 216.963 169.856 M 158.905 188.644 L 160.984 191.724 L 164.141 185.795 L 157.519 185.795 L 158.905 188.644 M 270.016 185.718 L 264.626 185.718 L 268.245 192.109 C 269.246 189.568 269.939 187.797 270.016 185.718 Z" style="stroke: none; stroke-dasharray: none; stroke-linecap: butt; stroke-dashoffset: 0; stroke-linejoin: miter; stroke-miterlimit: 4; fill: rgb(247, 204, 48); fill-rule: nonzero; opacity: 1; paint-order: fill;" vector-effect="non-scaling-stroke" bx:origin="0.416 0.512"/>
</svg>